# xmcd
#
# Track frame offsets:
#   150
#   12903
#   26640
#   38965
#   54077
#   70342
#   82578
#   99177
#   113187
#   126153
#   143798
#   159645
#
# Disc length: 2328 seconds
#
# Revision: 0
# Processed by: cddbd v1.5.2PL0 Copyright (c) Steve Scherf et al.
# Submitted via: uFREEDB ActiveX Control 1.5
#
DISCID=8f09160c
DTITLE=Varios - Comitiva Brasil
DYEAR=2007
DGENRE=Country
TTITLE0=Tonny e Kleber - Gostosa
TTITLE1=Mauricio e Mauri - Namoro escondido
TTITLE2=Vitor e Marcos - Caipirinha
TTITLE3=Tony e Kleber - Ranchinho
TTITLE4=Mauricio e Mauri - Nem que eu lever vaia
TTITLE5=Vitor e Marcos - Onde tem fumaça tem fogo
TTITLE6=Tony e Kleber - Último adeus
TTITLE7=Mauricio e Mauri - Eu de cá, você lá
TTITLE8=Vitor e Marcos - Expresso boiadeiro
TTITLE9=Mauricio e Mauri - O vai e vem do carreiro
TTITLE10=Vitor e Marcos - Fruto proibido
TTITLE11=Mauricio e Mauri, Tonny e Kleber e Vitor e Marcos 
EXTD=
EXTT0=
EXTT1=
EXTT2=
EXTT3=
EXTT4=
EXTT5=
EXTT6=
EXTT7=
EXTT8=
EXTT9=
EXTT10=
EXTT11=
PLAYORDER=
